<?xml version="1.0" standalone="no"?>
<!DOCTYPE svg PUBLIC "-//W3C//DTD SVG 20010904//EN"
 "http://www.w3.org/TR/2001/REC-SVG-20010904/DTD/svg10.dtd">
<svg version="1.0" xmlns="http://www.w3.org/2000/svg"
 width="160.000000pt" height="160.000000pt" viewBox="0 0 160.000000 160.000000"
 preserveAspectRatio="xMidYMid meet">
<metadata>
Created by potrace 1.14, written by Peter Selinger 2001-2017
</metadata>
<g transform="translate(0.000000,160.000000) scale(0.100000,-0.100000)"
fill="#000000" stroke="none">
<path d="M330 1520 c-126 -35 -231 -142 -265 -272 -21 -78 -13 -207 19 -301
72 -213 186 -364 607 -800 l106 -110 49 50 c209 213 375 394 444 483 19 25 38
47 42 50 3 3 28 37 53 75 159 236 201 465 118 630 -80 158 -261 237 -433 188
-74 -21 -201 -124 -257 -210 l-15 -22 -35 47 c-36 46 -49 60 -111 114 -82 71
-222 105 -322 78z"/>
</g>
</svg>
